<svg version="1" xmlns="http://www.w3.org/2000/svg" width="682.667" height="682.667" viewBox="0 0 512.000000 512.000000"><path d="M242.5.6c-31.8 2.4-57.4 8.3-84 19.1-44.3 18-84.2 50-112.4 90.3-40.6 58-55 132-39.5 202C28 408.1 103.9 484 200 505.4c27.6 6.1 61.8 7.8 88 4.2 58-7.8 107.8-32.3 148.6-73 40.7-40.8 65.2-90.6 73-148.6 2.3-16.8 2.3-47.2 0-64-5.7-42.4-20.4-80.6-44.1-114.5C424.4 50.7 360.1 11.8 289 2.6 277.1 1 251.2-.1 242.5.6zM283 77c56.6 9.2 106.1 51.8 123.9 106.7 7.8 23.8 8.1 28.9 8.1 125V392h-11v-85.9c0-80.5-.1-86.6-1.9-97.3-9.3-54.2-48.1-99.2-100.1-116.1-16.7-5.5-27.2-7.1-46-7.1-24.7 0-44.4 4.6-65.2 14.9-41.4 20.7-68.5 55.5-80.1 102.4-2 8.4-2.1 11.1-2.4 98.8l-.4 90.3h-11l.3-88.8c.3-87.8.4-88.8 2.6-99.5 10.7-50.6 41.1-90.5 86.2-112.9 29.6-14.6 62.7-19.4 97-13.8zm3 23.4c19.4 4.5 36.2 12.3 52.2 24.3 21.7 16.4 39 40.4 47.2 65.7 6.3 19.1 6 13.8 6.3 111.8l.4 89.8H347V259.1l-2.2-1.5c-2-1.4-12.1-1.6-88.8-1.6s-86.8.2-88.8 1.6l-2.2 1.5V392h-45.7l.2-85.8c.2-60.1.6-87.8 1.4-92.7 10.5-62.2 57.9-108 120.1-115.9 1.9-.2 10.5-.3 19-.1 11.9.3 17.9 1 26 2.9zM335 330v62h-11v-15.4c0-19.7 1.1-18.6-19.2-18.6H290v-15.4c0-14.9-.1-15.5-2.2-17-1.9-1.3-5.8-1.6-22.5-1.6H245v-15c0-20.7 2.5-19-28.8-19-23 0-25 .1-26.6 1.9-1.5 1.6-1.7 6.3-1.7 51V392H177V268h158v62z"/><path d="M167.2 166.6c-2.1 1.5-2.2 2-2.2 21 0 25.4-1.9 23.4 22.4 23.4 24.7 0 23 1.5 23.4-21.1.4-18.3.1-20.9-2.4-23.3-2.3-2.3-37.9-2.4-41.2 0zM199 188v11h-22v-22h22v11zM235 167c-1.9 1.9-2 3.3-2 21 0 25-2 23 23 23 17.7 0 19.1-.1 21-2 1.9-1.9 2-3.3 2-21s-.1-19.1-2-21c-1.9-1.9-3.3-2-21-2s-19.1.1-21 2zm32 21v11h-22v-22h22v11zM304.4 165.8c-2.8 1.9-3.4 5.6-3.4 22.7 0 23.9-1.5 22.5 23.5 22.5 24.4 0 22.5 2 22.5-23.4 0-19-.1-19.5-2.2-21-1.8-1.3-5.6-1.6-20.8-1.6-10.2 0-19 .4-19.6.8zM335 188v11h-22v-22h22v11z"/></svg>